<?xml version="1.0" encoding="UTF-8"?>
<svg id="Calque_1" xmlns="http://www.w3.org/2000/svg" version="1.1" viewBox="0 0 255.12 255.12">
  <!-- Generator: Adobe Illustrator 30.3.0, SVG Export Plug-In . SVG Version: 2.1.3 Build 182)  -->
  <defs>
    <style>
      .st0 {
        fill: #0b1b2e;
      }

      .st1 {
        fill: #fff;
      }

      .st2 {
        fill: #68d79f;
      }
    </style>
  </defs>
  <path class="st0" d="M161.1,234.64c-33.79,9.84-70.47,2.45-97.81-19.36-17.65-14.08-29.92-33.58-33.65-56.06-3.73-3.89-6.47-8.24-8.35-13.32-5.76-16.38-1.08-33.58,10.58-46.21,1.4-21.14,9.1-40.92,23.35-56.76,23.56-26.19,59.1-37.41,93.66-31.36,5.88,1.03,11.29,2.39,16.97,4.14,21.61,6.63,42.94,3.88,62.81-6.64.37-.2,1.4-.18,1.77,0,1.4.66,1.13,4.19.62,6.79-1.88,9.56-5.47,16.5-11.36,24.42,9.06-.52,17.04-3.71,24.9-7.97.49-.26,1.56-.32,1.94-.04.46.34.74,1.33.85,2.08-.52,4.36-1.69,8.28-3.34,12.35-4.57,11.26-11.98,20.96-22.15,28,14.04,26.1,18.75,54.92,11.65,83.78-4.49,18.21-13.68,35.14-26.65,48.72-12.49,13.07-28.3,22.38-45.78,27.47v-.03ZM193.19,51.02c-.8-.24-1.44-.64-1.65-1.25-.15-.45.17-1.36.67-1.71,4.42-3.14,8.34-6.56,11.89-10.62,1.39-1.79,2.68-3.38,3.8-5.76-17.83,3.77-32.27,1.94-49.54-1.84-5.66-1.24-10.94-2.29-16.74-2.94-21.44-2.4-43.08,2.67-60.85,14.98-11.39,7.89-20.43,18.69-26.49,31.08-1.88,4.18-3.55,8.05-4.48,12.8,29.89-20.81,68.28-31.03,104.39-30.41,17.96.31,35.42,3.62,52.15,10.51,7.25-2.61,13.96-6.93,18.64-13.54-6.18.82-11.7,1.51-17.54,1.06-4.88-.38-9.45-.97-14.25-2.37h0ZM177.92,97.15c13.06.54,25.71,2.55,38.21,6.04.24-.43.45-1.18.36-1.52-1.79-6.9-4.23-13.32-7.78-19.48-.47-.82-1.4-2.06-2.31-2.38-6.03-2.09-11.9-3.5-18.22-4.68-35.47-6.58-73.06-2.82-106.29,11.41-13.52,5.79-29.1,14.59-39.05,25.3-4,4.3-6.67,9.37-7.74,15.14-.84,4.05-.9,8.04.45,12.3,6.75-10.3,17.95-17.37,28.97-22.43,33.21-15.24,77.05-21.18,113.41-19.69h-.01ZM196.59,194.28c18.77-20.53,25.12-47.63,19.17-74.67-.4-1.8-1.31-2.91-3.13-3.42-11.19-3.15-22.47-5.33-34.19-6.37-23.08-2.05-46.26-.88-69.01,3.37-11.51,2.15-22.58,5.07-33.43,9.27-10.41,4.03-21.42,9.35-29.21,17.31-1.03,1.05-1.29,2.68-1.27,4.24.49,31.02,20.74,57.8,48.78,70.13,34.64,15.22,76.43,8.42,102.29-19.86h0Z"/>
  <path class="st1" d="M196.59,194.28c-25.86,28.29-67.65,35.09-102.29,19.86-28.05-12.32-48.3-39.1-48.78-70.13-.02-1.56.24-3.19,1.27-4.24,7.79-7.96,18.8-13.28,29.21-17.31,10.85-4.2,21.92-7.12,33.43-9.27,22.75-4.25,45.94-5.42,69.01-3.37,11.72,1.04,23,3.23,34.19,6.37,1.81.51,2.73,1.62,3.13,3.42,5.95,27.04-.4,54.14-19.17,74.67h0ZM98.92,159.91c4.69,3.16,10.29,1.52,13.2-3.14,2.64-4.23,3.25-9.38,2.13-14.33-.78-3.44-2.18-6.62-4.73-8.99-3.74-3.47-9.21-3.45-12.79.15-6.76,6.81-5.62,21.04,2.18,26.3h.01ZM189.3,143.16c.96-.12.64-1.88.41-2.48-2.19-5.64-7.14-9.32-13.3-9.04-11.21.5-19.58,9.46-22.84,19.95-.2.63.11,1.72.59,1.93.4.17,1.31.08,1.76-.2,10.17-6.27,21.23-11.46,33.38-10.15h0ZM101.15,186.69c4.34,3.57,8.97,6,14.2,7.91,17.01,6.22,36.19,4.58,51.83-4.57,6.02-3.52,11-8.19,14.66-14.01,1.18-1.88,1.22-4.26-.36-5.76-2.16-2.05-5.16-1.44-7.06.69-6.14,6.86-13.93,11.64-22.84,14.26-15.68,4.61-32.52,2.86-47.16-4.25-1.4-.68-3.18-.48-4.11.62-1.34,1.59-.78,3.79.84,5.11Z"/>
  <path class="st2" d="M177.92,97.15c-36.36-1.49-80.2,4.44-113.41,19.69-11.02,5.06-22.22,12.13-28.97,22.43-1.34-4.26-1.29-8.25-.45-12.3,1.07-5.77,3.74-10.83,7.74-15.14,9.96-10.71,25.53-19.51,39.05-25.3,33.23-14.23,70.82-17.99,106.29-11.41,6.32,1.17,12.19,2.58,18.22,4.68.91.32,1.84,1.55,2.31,2.38,3.55,6.16,5.98,12.59,7.78,19.48.09.34-.12,1.09-.36,1.52-12.5-3.49-25.15-5.51-38.21-6.04h.01Z"/>
  <path class="st1" d="M193.19,51.02c4.8,1.39,9.37,1.99,14.25,2.37,5.84.45,11.36-.24,17.54-1.06-4.68,6.61-11.39,10.93-18.64,13.54-16.73-6.89-34.2-10.2-52.15-10.51-36.1-.62-74.5,9.6-104.39,30.41.92-4.75,2.59-8.62,4.48-12.8,6.06-12.4,15.09-23.19,26.49-31.08,17.77-12.31,39.4-17.38,60.85-14.98,5.8.65,11.09,1.7,16.74,2.94,17.27,3.77,31.71,5.61,49.54,1.84-1.12,2.39-2.41,3.97-3.8,5.76-3.55,4.06-7.47,7.48-11.89,10.62-.5.35-.82,1.26-.67,1.71.21.61.85,1.01,1.65,1.25h0Z"/>
  <path class="st0" d="M101.15,186.69c-1.61-1.33-2.18-3.52-.84-5.11.93-1.1,2.7-1.3,4.11-.62,14.64,7.1,31.47,8.86,47.16,4.25,8.91-2.62,16.7-7.4,22.84-14.26,1.9-2.13,4.9-2.74,7.06-.69,1.58,1.51,1.54,3.88.36,5.76-3.65,5.82-8.64,10.49-14.66,14.01-15.64,9.15-34.82,10.79-51.83,4.57-5.23-1.91-9.86-4.35-14.2-7.91Z"/>
  <path class="st0" d="M98.92,159.91c-7.8-5.26-8.94-19.49-2.18-26.3,3.58-3.6,9.04-3.62,12.79-.15,2.55,2.36,3.95,5.55,4.73,8.99,1.12,4.95.51,10.1-2.13,14.33-2.91,4.66-8.51,6.31-13.2,3.14h-.01Z"/>
  <path class="st0" d="M189.3,143.16c-12.15-1.31-23.21,3.89-33.38,10.15-.45.28-1.37.37-1.76.2-.48-.21-.78-1.3-.59-1.93,3.26-10.49,11.63-19.45,22.84-19.95,6.16-.27,11.11,3.4,13.3,9.04.23.6.55,2.36-.41,2.48h0Z"/>
</svg>